/vscmnt/brussel_pixiu_data/_data_brussel/112/vsc11236/PredSimResults/SUBJ10mtu3D/worker1.mot
version=1
nRows=8
nColumns=50
inDegrees=yes
endheader
                time	         pelvis_tilt	         pelvis_list	     pelvis_rotation	           pelvis_tx	           pelvis_ty	           pelvis_tz	       hip_flexion_r	     hip_adduction_r	      hip_rotation_r	        knee_angle_r	       ankle_angle_r	         mtp_angle_r	       hip_flexion_l	     hip_adduction_l	      hip_rotation_l	        knee_angle_l	       ankle_angle_l	         mtp_angle_l	    lumbar_extension	      lumbar_bending	     lumbar_rotation	 ercspn_r/activation	 intobl_r/activation	 extobl_r/activation	    abd_r/activation	    add_r/activation	hamstrings_r/activation	bifemsh_r/activation	glut_max_r/activation	iliopsoas_r/activation	rect_fem_r/activation	  vasti_r/activation	gastroc_r/activation	 soleus_r/activation	tib_ant_r/activation	 ercspn_l/activation	 intobl_l/activation	 extobl_l/activation	    abd_l/activation	    add_l/activation	hamstrings_l/activation	bifemsh_l/activation	glut_max_l/activation	iliopsoas_l/activation	rect_fem_l/activation	  vasti_l/activation	gastroc_l/activation	 soleus_l/activation	tib_ant_l/activation	
          0.54403904	         -3.83388214	          0.21891193	         -7.16494385	          0.65828724	          0.82360559	          0.01332503	        -16.55550917	          0.35090342	          2.87364197	         -5.85741108	          8.49516666	         25.36039637	         31.26720942	         -1.90116452	         -4.49637594	         -9.33016320	          5.49047965	          0.26458122	         -7.57133695	          0.73735479	          5.21393052	          0.12518233	          0.00999999	          0.00999999	          0.06491793	          0.01000000	          0.01000028	          0.20043716	          0.01066590	          0.30298543	          0.01000000	          0.00999999	          0.26911687	          0.21742274	          0.01973453	          0.11438124	          0.15443369	          0.00999999	          0.01025815	          0.14431572	          0.11245672	          0.20006501	          0.05190438	          0.05308481	          0.01000001	          0.00999999	          0.01947640	          0.01395578	          0.29723253	
          0.55491982	         -3.82771319	          0.20074217	         -7.20191610	          0.67398804	          0.82241923	          0.01308505	        -16.66865763	          0.28767923	          2.50305206	         -7.62487812	          7.81824963	         27.03317578	         30.90364240	         -1.68823938	         -3.90424782	        -10.63181701	          5.20430841	          0.25155006	         -7.34529766	          0.33062516	          5.55467406	          0.13974757	          0.00999999	          0.00999999	          0.05495249	          0.01181343	          0.01615076	          0.16966841	          0.01000000	          0.25647468	          0.00999999	          0.00999999	          0.22780522	          0.20410919	          0.01670512	          0.09682278	          0.13072686	          0.00999999	          0.02064492	          0.12216208	          0.09601511	          0.16935339	          0.09954482	          0.04493586	          0.00999999	          0.00999999	          0.01648661	          0.01181345	          0.34331976	
          0.56580061	         -3.81675837	          0.19329939	         -7.19463769	          0.68983336	          0.82148876	          0.01273606	        -16.62871890	          0.21499046	          2.09493335	         -9.66905859	          7.01790254	         28.61083449	         30.45152672	         -1.47847367	         -3.39344027	        -11.75829459	          4.78266048	          0.24431222	         -7.10926906	         -0.08609702	          5.87055325	          0.15595412	          0.00999999	          0.00999999	          0.04651684	          0.00999999	          0.01367178	          0.14362292	          0.00999999	          0.21710372	          0.01000000	          0.00999999	          0.19283525	          0.18599869	          0.01414075	          0.11921191	          0.11065921	          0.00999999	          0.08360626	          0.14312064	          0.08127600	          0.14335626	          0.11800893	          0.03803784	          0.00999999	          0.01000000	          0.01395578	          0.00999999	          0.37885755	
          0.57668139	         -3.80076482	          0.18467766	         -7.14318711	          0.70564968	          0.82093397	          0.01228715	        -16.38071924	          0.14670329	          1.64298091	        -12.05876060	          6.08960318	         29.98927359	         30.00743027	         -1.26949213	         -2.98783597	        -12.88682857	          4.34751811	          0.23109256	         -6.88209670	         -0.50009528	          6.15515724	          0.18373862	          0.00999999	          0.00999999	          0.03937612	          0.01927214	          0.01837835	          0.12157563	          0.01000001	          0.18377652	          0.00999999	          0.00999999	          0.16323346	          0.15971306	          0.01197003	          0.11574409	          0.09367212	          0.00999999	          0.11939289	          0.19006609	          0.07081699	          0.12134990	          0.12034786	          0.03219872	          0.00999999	          0.02283659	          0.01181346	          0.00999999	          0.40746481	
          0.58756217	         -3.78114108	          0.18044100	         -7.05582305	          0.72133980	          0.82082484	          0.01174775	        -15.88202810	          0.07257897	          1.14463038	        -14.84546429	          5.06600987	         30.99142919	         29.58868025	         -1.05289870	         -2.66209951	        -14.06142285	          4.02408573	          0.21806700	         -6.66848406	         -0.91443603	          6.41274175	          0.19347473	          0.00999999	          0.00999999	          0.03333156	          0.08967903	          0.03543176	          0.10291277	          0.01000000	          0.15556532	          0.00999999	          0.00999999	          0.13817579	          0.13519579	          0.01013253	          0.11517857	          0.07929268	          0.00999999	          0.14375115	          0.21500474	          0.06640227	          0.10272170	          0.11555001	          0.02725595	          0.00999999	          0.05212794	          0.01000000	          0.00999999	          0.42124769	
          0.59844295	         -3.75988247	          0.17805468	         -6.93444775	          0.73683484	          0.82121939	          0.01114006	        -15.09646544	         -0.00825570	          0.58213100	        -18.06764059	          3.95536634	         31.44644782	         29.14330932	         -0.83114054	         -2.39506032	        -15.18292562	          3.83683777	          0.20411266	         -6.47251882	         -1.32617951	          6.64205634	          0.20096380	          0.00999999	          0.00999999	          0.02821489	          0.14783837	          0.04375224	          0.08711482	          0.00999999	          0.13168477	          0.00999999	          0.00999999	          0.11696467	          0.11444213	          0.00999999	          0.10285521	          0.06712060	          0.00999999	          0.15998026	          0.22478287	          0.06614490	          0.08695308	          0.10040384	          0.02307194	          0.00999999	          0.08874622	          0.01000000	          0.00999999	          0.42299042	
          0.60932373	         -3.73968284	          0.17451714	         -6.77868568	          0.75206525	          0.82217363	          0.01048314	        -13.99617643	         -0.10159232	         -0.04904420	        -21.73027055	          2.67836640	         31.30125723	         28.61061405	         -0.60484967	         -2.16270805	        -16.13455981	          3.80085246	          0.19217834	         -6.30027379	         -1.73203349	          6.84129374	          0.19948886	          0.00999999	          0.00999999	          0.02388368	          0.20203617	          0.05325977	          0.07374198	          0.00999999	          0.11147007	          0.00999999	          0.00999999	          0.09900964	          0.09687433	          0.00999999	          0.09347246	          0.05681704	          0.00999999	          0.16874091	          0.22583606	          0.06861731	          0.07360507	          0.08499103	          0.01953021	          0.00999999	          0.11484024	          0.01000000	          0.01000000	          0.41139260	
          0.62020451	         -3.72267193	          0.16513314	         -6.58837461	          0.76698523	          0.82368356	          0.00979582	        -12.58161429	         -0.21397473	         -0.73689506	        -25.76493996	          1.08017731	         30.61803655	         27.95309968	         -0.37730730	         -1.94141325	        -16.84049627	          3.90553836	          0.18357817	         -6.15656723	         -2.12763693	          7.00875417	          0.19706904	          0.00999999	          0.00999999	          0.02021734	          0.25407667	          0.06523657	          0.06242199	          0.00999999	          0.09435850	          0.00999999	          0.00999999	          0.08381084	          0.08200332	          0.00999999	          0.08384454	          0.04809516	          0.00999999	          0.17143730	          0.22631674	          0.07286990	          0.06230609	          0.07194421	          0.01653216	          0.00999999	          0.13005737	          0.01000000	          0.00999999	          0.39467952	
